<svg version="1.1" xmlns="http://www.w3.org/2000/svg" xmlns:xlink="http://www.w3.org/1999/xlink" x="0px" y="0px" viewBox="0 0 1000 1000" enable-background="new 0 0 1000 1000" xml:space="preserve">
<metadata> Svg Vector Icons : http://www.onlinewebfonts.com/icon </metadata>
<g><path d="M500,10C229.4,10,10,229.3,10,500C10,770.6,229.4,990,500,990c270.6,0,490-219.4,490-490.1C990,229.3,770.6,10,500,10z M794.1,372.9l-285,361.5c-9,11.5-22.5,18.9-37.2,20.2c-1.6,0.2-3.3,0.2-4.9,0.2c-13,0-25.5-4.7-35.3-13.3L227.1,561.8c-22.3-19.5-24.4-53.4-4.9-75.6c19.5-22.3,53.4-24.4,75.6-4.8L460,623.7l249.9-317.2c18.3-23.3,52.1-27.2,75.2-8.9C808.4,316,812.4,349.7,794.1,372.9z"/></g>
</svg>
